<svg width="512" height="512" viewBox="0 0 512 512" fill="none" xmlns="http://www.w3.org/2000/svg">
<path d="M212.48 217.216C219.196 217.216 224.64 211.772 224.64 205.056C224.64 198.34 219.196 192.896 212.48 192.896C205.764 192.896 200.32 198.34 200.32 205.056C200.32 211.772 205.764 217.216 212.48 217.216Z" fill="#F8F3EF"/>
<path d="M384.384 154.704C384.384 153.443 384.136 152.195 383.653 151.03C383.171 149.866 382.464 148.807 381.572 147.916C380.681 147.024 379.623 146.317 378.458 145.835C377.293 145.352 376.045 145.104 374.784 145.104H136.672C134.126 145.104 131.684 146.115 129.884 147.916C128.083 149.716 127.072 152.158 127.072 154.704V323.696H384.384V154.704ZM181.104 205.056C181.101 198.85 182.938 192.782 186.384 187.62C189.83 182.458 194.729 178.434 200.462 176.057C206.195 173.68 212.504 173.056 218.591 174.265C224.679 175.474 230.271 178.461 234.661 182.848C239.05 187.236 242.04 192.826 243.252 198.913C244.464 205 243.844 211.309 241.469 217.043C239.095 222.778 235.073 227.679 229.913 231.127C224.753 234.575 218.686 236.416 212.48 236.416C204.161 236.416 196.183 233.113 190.299 227.232C184.416 221.351 181.108 213.375 181.104 205.056ZM206.48 299.616C205.494 298.829 204.672 297.855 204.063 296.75C203.453 295.645 203.068 294.43 202.928 293.176C202.788 291.922 202.897 290.652 203.249 289.44C203.6 288.228 204.187 287.097 204.976 286.112L292.032 177.312C292.82 176.328 293.794 175.508 294.899 174.9C296.003 174.292 297.217 173.908 298.47 173.769C299.723 173.63 300.992 173.739 302.203 174.09C303.414 174.442 304.544 175.028 305.528 175.816C306.512 176.604 307.332 177.578 307.94 178.683C308.548 179.787 308.932 181.001 309.071 182.254C309.21 183.507 309.101 184.776 308.75 185.987C308.398 187.198 307.812 188.328 307.024 189.312L219.968 298.112C219.18 299.108 218.203 299.937 217.092 300.552C215.981 301.167 214.76 301.556 213.498 301.696C212.236 301.836 210.959 301.724 209.741 301.367C208.522 301.01 207.387 300.415 206.4 299.616H206.48ZM299.52 301.712C293.318 301.709 287.257 299.867 282.102 296.419C276.947 292.971 272.93 288.072 270.559 282.342C268.187 276.611 267.569 270.306 268.781 264.224C269.992 258.142 272.98 252.556 277.367 248.171C281.753 243.787 287.341 240.802 293.424 239.593C299.507 238.385 305.811 239.007 311.541 241.381C317.27 243.755 322.167 247.774 325.612 252.931C329.057 258.088 330.896 264.15 330.896 270.352C330.892 278.671 327.584 286.647 321.701 292.528C315.817 298.409 307.839 301.712 299.52 301.712Z" fill="#F8F3EF"/>
<path d="M299.52 282.512C306.236 282.512 311.68 277.068 311.68 270.352C311.68 263.636 306.236 258.192 299.52 258.192C292.804 258.192 287.36 263.636 287.36 270.352C287.36 277.068 292.804 282.512 299.52 282.512Z" fill="#F8F3EF"/>
<path d="M444.16 41.6001H67.84C60.882 41.6043 54.2102 44.3703 49.2902 49.2903C44.3701 54.2103 41.6042 60.8821 41.6 67.8401V444.16C41.6042 451.118 44.3701 457.79 49.2902 462.71C54.2102 467.63 60.882 470.396 67.84 470.4H444.16C451.118 470.396 457.79 467.63 462.71 462.71C467.63 457.79 470.396 451.118 470.4 444.16V67.8401C470.396 60.8821 467.63 54.2103 462.71 49.2903C457.79 44.3703 451.118 41.6043 444.16 41.6001ZM419.2 333.6C419.012 346.244 413.886 358.313 404.916 367.226C395.946 376.139 383.845 381.189 371.2 381.296H140.8C128.07 381.296 115.861 376.239 106.859 367.237C97.8571 358.235 92.8 346.026 92.8 333.296C92.8 330.75 93.8114 328.308 95.6118 326.508C97.4121 324.708 99.8539 323.696 102.4 323.696H107.904V154.704C107.904 147.066 110.938 139.74 116.339 134.339C121.74 128.938 129.066 125.904 136.704 125.904H374.784C382.422 125.904 389.748 128.938 395.149 134.339C400.55 139.74 403.584 147.066 403.584 154.704V323.696H409.6C420.336 323.696 419.2 329.008 419.2 333.6Z" fill="#F8F3EF"/>
<path d="M140.8 362.096H371.2C377.164 362.106 382.983 360.264 387.856 356.825C392.728 353.386 396.412 348.519 398.4 342.896H113.6C115.588 348.519 119.272 353.386 124.144 356.825C129.017 360.264 134.836 362.106 140.8 362.096Z" fill="#F8F3EF"/>
<path d="M444.16 22.3999H67.84C55.7912 22.4084 44.2383 27.1985 35.7185 35.7183C27.1986 44.2381 22.4085 55.7911 22.4 67.8399V444.16C22.4085 456.209 27.1986 467.762 35.7185 476.281C44.2383 484.801 55.7912 489.591 67.84 489.6H444.16C456.209 489.591 467.762 484.801 476.282 476.281C484.801 467.762 489.592 456.209 489.6 444.16V67.8399C489.592 55.7911 484.801 44.2381 476.282 35.7183C467.762 27.1985 456.209 22.4084 444.16 22.3999ZM470.4 444.16C470.396 451.118 467.63 457.79 462.71 462.71C457.79 467.63 451.118 470.396 444.16 470.4H67.84C60.882 470.396 54.2103 467.63 49.2902 462.71C44.3702 457.79 41.6043 451.118 41.6 444.16V67.8399C41.6043 60.8819 44.3702 54.2101 49.2902 49.2901C54.2103 44.3701 60.882 41.6041 67.84 41.5999H444.16C451.118 41.6041 457.79 44.3701 462.71 49.2901C467.63 54.2101 470.396 60.8819 470.4 67.8399V444.16Z" fill="#FF7B15"/>
<path d="M243.84 205.056C243.843 198.849 242.005 192.781 238.559 187.618C235.112 182.456 230.212 178.432 224.478 176.055C218.745 173.679 212.435 173.056 206.347 174.266C200.259 175.476 194.667 178.465 190.278 182.854C185.889 187.243 182.9 192.835 181.69 198.923C180.48 205.011 181.103 211.321 183.479 217.055C185.856 222.788 189.88 227.689 195.042 231.135C200.205 234.581 206.273 236.419 212.48 236.416C220.796 236.412 228.77 233.106 234.65 227.226C240.53 221.346 243.836 213.372 243.84 205.056ZM200.304 205.056C200.304 202.652 201.017 200.301 202.352 198.302C203.688 196.303 205.586 194.744 207.807 193.823C210.028 192.902 212.472 192.661 214.83 193.129C217.189 193.596 219.356 194.753 221.057 196.452C222.758 198.151 223.917 200.316 224.388 202.674C224.859 205.032 224.621 207.476 223.703 209.698C222.785 211.921 221.229 213.821 219.231 215.159C217.234 216.497 214.884 217.213 212.48 217.216C209.254 217.216 206.159 215.935 203.876 213.655C201.593 211.375 200.308 208.283 200.304 205.056Z" fill="#FF7B15"/>
<path d="M299.52 238.992C293.318 238.995 287.257 240.837 282.102 244.285C276.947 247.732 272.93 252.631 270.559 258.362C268.187 264.092 267.569 270.397 268.781 276.48C269.992 282.562 272.98 288.148 277.367 292.532C281.753 296.916 287.341 299.902 293.424 301.11C299.507 302.319 305.811 301.697 311.541 299.323C317.27 296.949 322.167 292.929 325.612 287.773C329.057 282.616 330.896 276.553 330.896 270.352C330.892 262.033 327.584 254.057 321.701 248.176C315.817 242.295 307.839 238.992 299.52 238.992ZM299.52 282.512C297.116 282.509 294.766 281.793 292.769 280.455C290.771 279.117 289.215 277.216 288.297 274.994C287.379 272.772 287.141 270.327 287.612 267.97C288.083 265.612 289.242 263.447 290.943 261.748C292.645 260.049 294.811 258.892 297.17 258.424C299.528 257.956 301.972 258.198 304.193 259.119C306.414 260.04 308.312 261.598 309.648 263.598C310.983 265.597 311.696 267.947 311.696 270.352C311.692 273.578 310.407 276.671 308.124 278.951C305.841 281.231 302.747 282.512 299.52 282.512Z" fill="#FF7B15"/>
<path d="M305.52 175.792C303.532 174.204 300.994 173.47 298.465 173.752C295.935 174.034 293.622 175.309 292.032 177.296L204.976 286.096C204.188 287.08 203.602 288.21 203.251 289.421C202.899 290.632 202.79 291.901 202.929 293.154C203.068 294.407 203.452 295.621 204.06 296.725C204.668 297.83 205.488 298.804 206.472 299.592C207.456 300.38 208.586 300.966 209.797 301.318C211.008 301.669 212.277 301.778 213.53 301.639C214.783 301.5 215.997 301.116 217.101 300.508C218.206 299.9 219.18 299.08 219.968 298.096L307.024 189.296C307.813 188.311 308.4 187.18 308.751 185.968C309.103 184.756 309.212 183.486 309.072 182.232C308.932 180.978 308.547 179.764 307.937 178.659C307.328 177.553 306.506 176.579 305.52 175.792Z" fill="#FF7B15"/>
<path d="M409.6 323.696H403.552V154.704C403.552 150.922 402.807 147.177 401.36 143.683C399.912 140.188 397.791 137.013 395.117 134.339C392.442 131.665 389.267 129.543 385.773 128.096C382.279 126.649 378.534 125.904 374.752 125.904H136.672C129.034 125.904 121.708 128.938 116.307 134.339C110.906 139.74 107.872 147.066 107.872 154.704V323.696H102.4C99.854 323.696 97.4122 324.707 95.6118 326.508C93.8115 328.308 92.8 330.75 92.8 333.296C92.8 346.026 97.8572 358.235 106.859 367.237C115.861 376.239 128.07 381.296 140.8 381.296H371.2C383.845 381.189 395.946 376.139 404.916 367.225C413.886 358.312 419.012 346.244 419.2 333.6C419.2 329.008 420.336 323.696 409.6 323.696ZM127.072 154.704C127.072 152.158 128.083 149.716 129.884 147.916C131.684 146.115 134.126 145.104 136.672 145.104H374.784C376.045 145.104 377.293 145.352 378.458 145.835C379.623 146.317 380.681 147.024 381.572 147.916C382.464 148.807 383.171 149.865 383.653 151.03C384.136 152.195 384.384 153.443 384.384 154.704V323.696H127.072V154.704ZM371.2 362.096H140.8C134.836 362.106 129.017 360.264 124.144 356.825C119.272 353.385 115.588 348.518 113.6 342.896H398.4C396.412 348.518 392.728 353.385 387.856 356.825C382.983 360.264 377.164 362.106 371.2 362.096Z" fill="#FF7B15"/>
</svg>
