<svg width="512" height="512" viewBox="0 0 512 512" fill="none" xmlns="http://www.w3.org/2000/svg">
<path d="M375.728 257.6H341.728C340.838 257.7 339.983 258.004 339.231 258.49C338.479 258.976 337.849 259.63 337.392 260.4C335.311 263.413 334.24 267.011 334.336 270.672V361.328C334.239 364.989 335.31 368.587 337.392 371.6C337.849 372.37 338.479 373.024 339.231 373.51C339.983 373.995 340.838 374.3 341.728 374.4H375.728C376.618 374.3 377.473 373.995 378.225 373.51C378.978 373.024 379.607 372.37 380.064 371.6C382.147 368.587 383.217 364.989 383.12 361.328V270.672C383.216 267.011 382.146 263.413 380.064 260.4C379.607 259.63 378.978 258.976 378.225 258.49C377.473 258.004 376.618 257.7 375.728 257.6Z" fill="#F8F3EF"/>
<path d="M131.648 260.4C129.565 263.413 128.495 267.01 128.592 270.672V361.328C128.495 364.989 129.565 368.587 131.648 371.6C132.107 372.372 132.739 373.027 133.494 373.513C134.249 373.999 135.107 374.302 136 374.4H170C170.89 374.3 171.745 373.995 172.497 373.51C173.249 373.024 173.879 372.37 174.336 371.6C176.419 368.587 177.489 364.989 177.392 361.328V270.672C177.488 267.011 176.418 263.413 174.336 260.4C173.879 259.63 173.249 258.976 172.497 258.49C171.745 258.004 170.89 257.7 170 257.6H136C135.107 257.697 134.249 258.001 133.494 258.487C132.739 258.973 132.107 259.628 131.648 260.4Z" fill="#F8F3EF"/>
<path d="M102.928 302.928H109.392V329.072H102.928V302.928Z" fill="#F8F3EF"/>
<path d="M402.336 302.928H409.088V329.072H402.336V302.928Z" fill="#F8F3EF"/>
<path d="M444.16 41.5999H67.8401C60.8821 41.6041 54.2103 44.37 49.2903 49.2901C44.3703 54.2101 41.6043 60.8819 41.6001 67.8399V444.16C41.6043 451.118 44.3703 457.79 49.2903 462.71C54.2103 467.63 60.8821 470.396 67.8401 470.4H444.16C451.118 470.396 457.79 467.63 462.71 462.71C467.63 457.79 470.396 451.118 470.4 444.16V67.8399C470.396 60.8819 467.63 54.2101 462.71 49.2901C457.79 44.37 451.118 41.6041 444.16 41.5999ZM428.272 338.672C428.272 341.218 427.261 343.66 425.46 345.46C423.66 347.26 421.218 348.272 418.672 348.272H402.336V361.328C402.417 369.141 400.001 376.775 395.44 383.12C393.213 386.293 390.269 388.896 386.846 390.717C383.424 392.538 379.62 393.526 375.744 393.6H341.728C337.852 393.526 334.048 392.538 330.626 390.717C327.204 388.896 324.259 386.293 322.032 383.12C317.472 376.775 315.056 369.141 315.136 361.328V270.672C315.056 262.859 317.472 255.224 322.032 248.88C324.259 245.707 327.204 243.104 330.626 241.283C334.048 239.462 337.852 238.474 341.728 238.4H352V225.328C353.072 198.951 343.646 173.224 325.787 153.782C307.929 134.34 283.093 122.768 256.72 121.6C230.355 122.78 205.532 134.357 187.684 153.798C169.836 173.239 160.416 198.958 161.488 225.328V238.4H169.984C173.86 238.474 177.664 239.462 181.086 241.283C184.509 243.104 187.453 245.707 189.68 248.88C194.241 255.224 196.657 262.859 196.576 270.672V361.328C196.657 369.141 194.241 376.775 189.68 383.12C187.453 386.293 184.509 388.896 181.086 390.717C177.664 392.538 173.86 393.526 169.984 393.6H136C132.124 393.527 128.32 392.54 124.897 390.719C121.475 388.897 118.53 386.294 116.304 383.12C111.744 376.775 109.328 369.141 109.408 361.328V348.272H93.4081C92.1474 348.272 90.8991 348.024 89.7343 347.541C88.5696 347.059 87.5113 346.352 86.6199 345.46C85.7284 344.569 85.0213 343.51 84.5389 342.346C84.0564 341.181 83.8081 339.933 83.8081 338.672V293.328C83.8081 290.782 84.8195 288.34 86.6199 286.54C88.4202 284.739 90.862 283.728 93.4081 283.728H109.408V270.672C109.326 262.859 111.743 255.224 116.304 248.88C118.531 245.707 121.476 243.104 124.898 241.283C128.32 239.462 132.124 238.474 136 238.4H142.304V225.328C141.236 193.87 152.677 163.272 174.122 140.232C195.566 117.192 225.267 103.588 256.72 102.4C288.185 103.572 317.902 117.168 339.36 140.21C360.818 163.251 372.268 193.86 371.2 225.328V238.4H375.76C379.636 238.474 383.44 239.462 386.862 241.283C390.285 243.104 393.229 245.707 395.456 248.88C400.018 255.224 402.434 262.859 402.352 270.672V283.728H418.704C421.25 283.728 423.692 284.739 425.492 286.54C427.293 288.34 428.304 290.782 428.304 293.328L428.272 338.672Z" fill="#F8F3EF"/>
<path d="M444.16 22.3999H67.8399C55.7911 22.4084 44.2381 27.1985 35.7183 35.7183C27.1985 44.2381 22.4084 55.7911 22.3999 67.8399V444.16C22.4084 456.209 27.1985 467.762 35.7183 476.281C44.2381 484.801 55.7911 489.591 67.8399 489.6H444.16C456.209 489.591 467.762 484.801 476.281 476.281C484.801 467.762 489.591 456.209 489.6 444.16V67.8399C489.591 55.7911 484.801 44.2381 476.281 35.7183C467.762 27.1985 456.209 22.4084 444.16 22.3999ZM470.4 444.16C470.396 451.118 467.63 457.79 462.71 462.71C457.79 467.63 451.118 470.396 444.16 470.4H67.8399C60.8819 470.396 54.2101 467.63 49.2901 462.71C44.3701 457.79 41.6041 451.118 41.5999 444.16V67.8399C41.6041 60.8819 44.3701 54.2101 49.2901 49.2901C54.2101 44.3701 60.8819 41.6041 67.8399 41.5999H444.16C451.118 41.6041 457.79 44.3701 462.71 49.2901C467.63 54.2101 470.396 60.8819 470.4 67.8399V444.16Z" fill="#FF7B15"/>
<path d="M418.672 283.728H402.336V270.672C402.418 262.859 400.002 255.224 395.44 248.88C393.213 245.707 390.269 243.104 386.846 241.283C383.424 239.462 379.62 238.474 375.744 238.4H371.2V225.328C372.268 193.86 360.818 163.252 339.36 140.21C317.902 117.168 288.185 103.572 256.72 102.4C225.264 103.584 195.559 117.186 174.111 140.226C152.663 163.267 141.22 193.868 142.288 225.328V238.4H136C132.124 238.474 128.32 239.462 124.898 241.283C121.476 243.104 118.531 245.707 116.304 248.88C111.743 255.224 109.326 262.859 109.408 270.672V283.728H93.4081C90.862 283.728 88.4202 284.739 86.6199 286.54C84.8195 288.34 83.8081 290.782 83.8081 293.328V338.672C83.8081 341.218 84.8195 343.66 86.6199 345.46C88.4202 347.26 90.862 348.272 93.4081 348.272H109.408V361.328C109.328 369.141 111.744 376.776 116.304 383.12C118.53 386.294 121.475 388.897 124.897 390.719C128.32 392.54 132.124 393.527 136 393.6H170C173.876 393.526 177.68 392.538 181.102 390.717C184.525 388.896 187.469 386.293 189.696 383.12C194.257 376.776 196.673 369.141 196.592 361.328V270.672C196.673 262.859 194.257 255.224 189.696 248.88C187.469 245.707 184.525 243.104 181.102 241.283C177.68 239.462 173.876 238.474 170 238.4H161.504V225.328C160.432 198.961 169.849 173.244 187.694 153.803C205.539 134.363 230.358 122.784 256.72 121.6C283.093 122.768 307.929 134.34 325.787 153.782C343.646 173.224 353.072 198.951 352 225.328V238.4H341.76C337.884 238.474 334.08 239.462 330.658 241.283C327.236 243.104 324.291 245.707 322.064 248.88C317.504 255.224 315.088 262.859 315.168 270.672V361.328C315.088 369.141 317.504 376.776 322.064 383.12C324.291 386.293 327.236 388.896 330.658 390.717C334.08 392.538 337.884 393.526 341.76 393.6H375.76C379.636 393.526 383.44 392.538 386.862 390.717C390.285 388.896 393.229 386.293 395.456 383.12C400.017 376.776 402.433 369.141 402.352 361.328V348.272H418.704C419.965 348.272 421.213 348.024 422.378 347.541C423.543 347.059 424.601 346.352 425.492 345.46C426.384 344.569 427.091 343.51 427.573 342.346C428.056 341.181 428.304 339.933 428.304 338.672V293.328C428.304 292.065 428.055 290.814 427.57 289.647C427.086 288.48 426.376 287.42 425.481 286.528C424.586 285.636 423.524 284.93 422.356 284.449C421.187 283.969 419.935 283.724 418.672 283.728ZM109.392 329.072H102.992V302.928H109.392V329.072ZM169.984 257.6C170.874 257.7 171.729 258.004 172.481 258.49C173.234 258.976 173.863 259.63 174.32 260.4C176.402 263.414 177.472 267.011 177.376 270.672V361.328C177.473 364.989 176.403 368.587 174.32 371.6C173.863 372.37 173.234 373.024 172.481 373.51C171.729 373.995 170.874 374.3 169.984 374.4H136C135.11 374.3 134.255 373.995 133.503 373.51C132.751 373.024 132.121 372.37 131.664 371.6C129.582 368.587 128.511 364.989 128.608 361.328V270.672C128.511 267.01 129.582 263.413 131.664 260.4C132.121 259.63 132.751 258.976 133.503 258.49C134.255 258.004 135.11 257.7 136 257.6H169.984ZM383.12 361.328C383.217 364.989 382.147 368.587 380.064 371.6C379.607 372.37 378.978 373.024 378.225 373.51C377.473 373.995 376.618 374.3 375.728 374.4H341.728C340.838 374.3 339.983 373.995 339.231 373.51C338.479 373.024 337.849 372.37 337.392 371.6C335.31 368.587 334.239 364.989 334.336 361.328V270.672C334.24 267.011 335.311 263.414 337.392 260.4C337.849 259.63 338.479 258.976 339.231 258.49C339.983 258.004 340.838 257.7 341.728 257.6H375.728C376.618 257.7 377.473 258.004 378.225 258.49C378.978 258.976 379.607 259.63 380.064 260.4C382.146 263.414 383.216 267.011 383.12 270.672V361.328ZM409.072 329.072H402.32V302.928H409.072V329.072Z" fill="#FF7B15"/>
</svg>
