<svg width="512" height="512" viewBox="0 0 512 512" fill="none" xmlns="http://www.w3.org/2000/svg">
<path d="M201.024 247.344C205.601 247.344 209.312 243.633 209.312 239.056C209.312 234.479 205.601 230.768 201.024 230.768C196.447 230.768 192.736 234.479 192.736 239.056C192.736 243.633 196.447 247.344 201.024 247.344Z" fill="#F8F3EF"/>
<path d="M310.976 247.344C315.553 247.344 319.264 243.633 319.264 239.056C319.264 234.479 315.553 230.768 310.976 230.768C306.398 230.768 302.688 234.479 302.688 239.056C302.688 243.633 306.398 247.344 310.976 247.344Z" fill="#F8F3EF"/>
<path d="M301.376 161.136C301.376 130.896 281.6 105.6 256 105.6C230.4 105.6 210.624 130.896 210.624 161.136V173.264H301.376V161.136Z" fill="#F8F3EF"/>
<path d="M267.616 296.496L263.12 301.296C262.22 302.291 261.121 303.087 259.895 303.631C258.668 304.176 257.342 304.457 256 304.457C254.658 304.457 253.331 304.176 252.105 303.631C250.878 303.087 249.78 302.291 248.88 301.296L244.384 296.496C243.016 294.988 241.348 293.783 239.486 292.959C237.625 292.134 235.612 291.708 233.576 291.708C231.54 291.708 229.527 292.134 227.665 292.959C225.804 293.783 224.136 294.988 222.768 296.496C219.655 299.926 217.93 304.392 217.93 309.024C217.93 313.656 219.655 318.122 222.768 321.552L256 357.12L289.232 321.6C292.345 318.17 294.07 313.704 294.07 309.072C294.07 304.44 292.345 299.974 289.232 296.544C287.867 295.033 286.202 293.825 284.342 292.996C282.483 292.167 280.47 291.737 278.434 291.732C276.399 291.727 274.384 292.149 272.521 292.97C270.658 293.79 268.987 294.991 267.616 296.496Z" fill="#F8F3EF"/>
<path d="M324.608 192.464H320.576V213.264C326.614 215.515 331.67 219.815 334.86 225.415C338.05 231.014 339.171 237.556 338.028 243.898C336.884 250.24 333.549 255.979 328.604 260.112C323.66 264.245 317.42 266.509 310.976 266.509C304.531 266.509 298.292 264.245 293.347 260.112C288.403 255.979 285.067 250.24 283.924 243.898C282.78 237.556 283.902 231.014 287.091 225.415C290.281 219.815 295.337 215.515 301.376 213.264V192.464H210.624V213.264C216.662 215.515 221.718 219.815 224.908 225.415C228.098 231.014 229.219 237.556 228.076 243.898C226.932 250.24 223.597 255.979 218.652 260.112C213.708 264.245 207.468 266.509 201.024 266.509C194.579 266.509 188.34 264.245 183.395 260.112C178.451 255.979 175.115 250.24 173.972 243.898C172.828 237.556 173.95 231.014 177.139 225.415C180.329 219.815 185.385 215.515 191.424 213.264V192.464H187.392C179.737 191.726 172.076 193.812 165.852 198.33C159.628 202.847 155.27 209.485 153.6 216.992L139.2 361.76C138.935 365.418 139.541 369.087 140.967 372.466C142.394 375.845 144.601 378.838 147.408 381.2C154.521 387.307 163.634 390.582 173.008 390.4H339.088C348.462 390.582 357.574 387.307 364.688 381.2C367.477 378.829 369.666 375.831 371.075 372.453C372.485 369.074 373.076 365.41 372.8 361.76L358.4 216.992C356.729 209.485 352.372 202.847 346.148 198.33C339.924 193.812 332.263 191.726 324.608 192.464ZM303.264 334.656L269.216 371.104C267.546 372.953 265.507 374.43 263.231 375.442C260.954 376.453 258.491 376.976 256 376.976C253.509 376.976 251.045 376.453 248.769 375.442C246.492 374.43 244.453 372.953 242.784 371.104L208.736 334.656C202.376 327.647 198.852 318.521 198.852 309.056C198.852 299.591 202.376 290.465 208.736 283.456C214.684 276.87 223.004 272.915 231.868 272.462C240.731 272.009 249.411 275.095 256 281.04C262.58 275.087 271.256 271.99 280.119 272.431C288.982 272.872 297.307 276.815 303.264 283.392C309.642 290.405 313.176 299.544 313.176 309.024C313.176 318.504 309.642 327.643 303.264 334.656Z" fill="#F8F3EF"/>
<path d="M444.16 41.6001H67.8399C60.8819 41.6043 54.2101 44.3703 49.2901 49.2903C44.37 54.2103 41.6041 60.8821 41.5999 67.8401V444.16C41.6041 451.118 44.37 457.79 49.2901 462.71C54.2101 467.63 60.8819 470.396 67.8399 470.4H444.16C451.118 470.396 457.79 467.63 462.71 462.71C467.63 457.79 470.396 451.118 470.4 444.16V67.8401C470.396 60.8821 467.63 54.2103 462.71 49.2903C457.79 44.3703 451.118 41.6043 444.16 41.6001ZM377.488 395.424C366.861 404.701 353.194 409.746 339.088 409.6H172.912C158.806 409.746 145.139 404.701 134.512 395.424C129.47 391.057 125.536 385.556 123.033 379.373C120.529 373.19 119.528 366.501 120.112 359.856L134.512 215.088C136.663 202.86 143.227 191.847 152.96 184.137C162.692 176.428 174.916 172.559 187.312 173.264H191.344V161.136C191.424 119.488 220.8 86.4001 256 86.4001C291.2 86.4001 320.576 119.488 320.576 161.136V173.264H324.608C337.004 172.559 349.227 176.428 358.96 184.137C368.692 191.847 375.257 202.86 377.408 215.088C381.296 254.016 387.744 318.496 391.888 359.856C392.471 366.501 391.47 373.19 388.967 379.373C386.464 385.556 382.53 391.057 377.488 395.424Z" fill="#F8F3EF"/>
<path d="M444.16 22.3999H67.8399C55.7911 22.4084 44.2381 27.1985 35.7183 35.7183C27.1985 44.2381 22.4084 55.7911 22.3999 67.8399V444.16C22.4084 456.209 27.1985 467.762 35.7183 476.281C44.2381 484.801 55.7911 489.591 67.8399 489.6H444.16C456.209 489.591 467.762 484.801 476.281 476.281C484.801 467.762 489.591 456.209 489.6 444.16V67.8399C489.591 55.7911 484.801 44.2381 476.281 35.7183C467.762 27.1985 456.209 22.4084 444.16 22.3999ZM470.4 444.16C470.396 451.118 467.63 457.79 462.71 462.71C457.79 467.63 451.118 470.396 444.16 470.4H67.8399C60.8819 470.396 54.2101 467.63 49.2901 462.71C44.3701 457.79 41.6041 451.118 41.5999 444.16V67.8399C41.6041 60.8819 44.3701 54.2101 49.2901 49.2901C54.2101 44.3701 60.8819 41.6041 67.8399 41.5999H444.16C451.118 41.6041 457.79 44.3701 462.71 49.2901C467.63 54.2101 470.396 60.8819 470.4 67.8399V444.16Z" fill="#FF7B15"/>
<path d="M324.608 173.264H320.576V161.136C320.576 119.488 291.2 86.3999 256 86.3999C220.8 86.3999 191.424 119.488 191.424 161.136V173.264H187.392C174.996 172.559 162.773 176.428 153.04 184.137C143.308 191.846 136.743 202.86 134.592 215.088L120.192 359.856C119.608 366.501 120.609 373.189 123.113 379.372C125.616 385.555 129.55 391.056 134.592 395.424C145.219 404.701 158.886 409.746 172.992 409.6H339.088C353.194 409.746 366.861 404.701 377.488 395.424C382.53 391.056 386.464 385.555 388.967 379.372C391.47 373.189 392.471 366.501 391.888 359.856C387.744 318.496 381.296 254.016 377.408 215.088C375.257 202.86 368.692 191.846 358.96 184.137C349.227 176.428 337.004 172.559 324.608 173.264ZM310.976 230.864C312.611 230.867 314.209 231.355 315.567 232.266C316.925 233.177 317.983 234.47 318.607 235.981C319.23 237.493 319.392 239.156 319.071 240.759C318.75 242.363 317.961 243.835 316.803 244.991C315.646 246.146 314.172 246.932 312.568 247.25C310.964 247.568 309.301 247.403 307.791 246.777C306.28 246.15 304.989 245.09 304.081 243.73C303.173 242.37 302.688 240.771 302.688 239.136C302.677 238.042 302.884 236.956 303.296 235.942C303.708 234.928 304.317 234.006 305.088 233.229C305.859 232.452 306.776 231.836 307.787 231.417C308.798 230.997 309.882 230.782 310.976 230.784V230.864ZM210.624 161.216C210.624 130.896 230.4 105.6 256 105.6C281.6 105.6 301.376 130.896 301.376 161.136V173.264H210.624V161.216ZM201.024 230.864C202.659 230.867 204.257 231.355 205.615 232.266C206.973 233.177 208.031 234.47 208.655 235.981C209.278 237.493 209.44 239.156 209.119 240.759C208.798 242.363 208.009 243.835 206.851 244.991C205.694 246.146 204.22 246.932 202.616 247.25C201.012 247.568 199.349 247.403 197.839 246.777C196.328 246.15 195.037 245.09 194.129 243.73C193.221 242.37 192.736 240.771 192.736 239.136C192.725 238.042 192.932 236.956 193.344 235.942C193.756 234.928 194.365 234.006 195.136 233.229C195.907 232.452 196.824 231.836 197.835 231.417C198.846 230.997 199.93 230.782 201.024 230.784V230.864ZM364.608 381.264C357.495 387.371 348.382 390.646 339.008 390.464H172.912C163.538 390.646 154.425 387.371 147.312 381.264C144.514 378.886 142.319 375.878 140.909 372.488C139.499 369.097 138.913 365.421 139.2 361.76L153.6 216.992C155.269 209.497 159.617 202.869 165.828 198.353C172.038 193.836 179.683 191.742 187.328 192.464H191.36V213.264C185.321 215.515 180.266 219.815 177.076 225.415C173.886 231.014 172.765 237.556 173.908 243.898C175.052 250.241 178.387 255.979 183.332 260.112C188.276 264.245 194.516 266.509 200.96 266.509C207.404 266.509 213.644 264.245 218.588 260.112C223.533 255.979 226.868 250.241 228.012 243.898C229.155 237.556 228.034 231.014 224.844 225.415C221.654 219.815 216.598 215.515 210.56 213.264V192.464H301.312V213.264C295.273 215.515 290.218 219.815 287.028 225.415C283.838 231.014 282.717 237.556 283.86 243.898C285.004 250.241 288.339 255.979 293.284 260.112C298.228 264.245 304.468 266.509 310.912 266.509C317.356 266.509 323.596 264.245 328.54 260.112C333.485 255.979 336.82 250.241 337.964 243.898C339.107 237.556 337.986 231.014 334.796 225.415C331.606 219.815 326.55 215.515 320.512 213.264V192.464H324.544C332.21 191.709 339.886 193.788 346.124 198.307C352.361 202.826 356.728 209.473 358.4 216.992L372.8 361.76C373.067 365.417 372.463 369.085 371.039 372.464C369.616 375.843 367.412 378.837 364.608 381.2V381.264Z" fill="#FF7B15"/>
<path d="M256 281.04C249.419 275.087 240.744 271.99 231.881 272.432C223.018 272.873 214.693 276.815 208.736 283.392C202.376 290.401 198.853 299.527 198.853 308.992C198.853 318.457 202.376 327.583 208.736 334.592L242.784 371.04C244.454 372.889 246.493 374.367 248.769 375.378C251.046 376.39 253.509 376.912 256 376.912C258.491 376.912 260.954 376.39 263.231 375.378C265.507 374.367 267.546 372.889 269.216 371.04L303.264 334.592C309.624 327.583 313.148 318.457 313.148 308.992C313.148 299.527 309.624 290.401 303.264 283.392C297.307 276.815 288.982 272.873 280.119 272.432C271.256 271.99 262.581 275.087 256 281.04ZM289.232 321.6L256 357.12L222.768 321.6C219.655 318.17 217.93 313.704 217.93 309.072C217.93 304.44 219.655 299.974 222.768 296.544C224.136 295.036 225.804 293.831 227.665 293.007C229.527 292.182 231.54 291.756 233.576 291.756C235.612 291.756 237.625 292.182 239.487 293.007C241.348 293.831 243.016 295.036 244.384 296.544L248.88 301.344C249.78 302.339 250.879 303.135 252.105 303.679C253.331 304.223 254.658 304.505 256 304.505C257.342 304.505 258.669 304.223 259.895 303.679C261.121 303.135 262.22 302.339 263.12 301.344L267.616 296.544C268.984 295.036 270.652 293.831 272.513 293.007C274.375 292.182 276.388 291.756 278.424 291.756C280.46 291.756 282.473 292.182 284.335 293.007C286.196 293.831 287.864 295.036 289.232 296.544C292.345 299.974 294.07 304.44 294.07 309.072C294.07 313.704 292.345 318.17 289.232 321.6Z" fill="#FF7B15"/>
</svg>
