<svg width="512" height="512" viewBox="0 0 512 512" fill="none" xmlns="http://www.w3.org/2000/svg">
<path d="M256 256.976C281.37 256.976 301.936 236.41 301.936 211.04C301.936 185.67 281.37 165.104 256 165.104C230.63 165.104 210.064 185.67 210.064 211.04C210.064 236.41 230.63 256.976 256 256.976Z" fill="#F8F3EF"/>
<path d="M214.608 310.976C207.956 312.028 201.158 311.696 194.64 310L165.632 360.256L190.4 353.6C191.618 353.273 192.888 353.19 194.138 353.354C195.388 353.518 196.593 353.926 197.685 354.556C198.777 355.186 199.735 356.025 200.502 357.025C201.27 358.025 201.834 359.166 202.16 360.384L208.816 385.216L240.976 329.504C230.401 326.371 221.141 319.864 214.608 310.976Z" fill="#F8F3EF"/>
<path d="M297.408 310.976C290.849 319.872 281.561 326.379 270.96 329.504L303.12 385.216L309.776 360.384C310.102 359.159 310.668 358.012 311.44 357.007C312.212 356.002 313.176 355.16 314.275 354.529C315.374 353.898 316.587 353.492 317.845 353.332C319.102 353.173 320.378 353.264 321.6 353.6L346.432 360.256L317.424 310C310.891 311.705 304.076 312.037 297.408 310.976Z" fill="#F8F3EF"/>
<path d="M340.8 182.96C338.59 181.952 336.844 180.143 335.914 177.898C334.985 175.654 334.941 173.14 335.792 170.864C337.39 165.363 337.482 159.534 336.059 153.985C334.635 148.436 331.748 143.371 327.699 139.319C323.65 135.266 318.587 132.375 313.04 130.947C307.492 129.519 301.662 129.606 296.16 131.2C293.884 132.051 291.371 132.007 289.126 131.078C286.881 130.149 285.072 128.403 284.064 126.192C281.307 121.159 277.247 116.961 272.309 114.036C267.372 111.111 261.739 109.568 256 109.568C250.261 109.568 244.628 111.111 239.691 114.036C234.753 116.961 230.693 121.159 227.936 126.192C226.928 128.403 225.119 130.149 222.874 131.078C220.629 132.007 218.116 132.051 215.84 131.2C210.33 129.589 204.488 129.489 198.927 130.912C193.366 132.334 188.289 135.227 184.23 139.286C180.171 143.345 177.278 148.422 175.856 153.983C174.433 159.545 174.533 165.386 176.144 170.896C176.995 173.172 176.951 175.686 176.022 177.93C175.092 180.175 173.346 181.984 171.136 182.992C166.099 185.748 161.897 189.809 158.969 194.748C156.042 199.687 154.497 205.323 154.497 211.064C154.497 216.806 156.042 222.441 158.969 227.381C161.897 232.32 166.099 236.38 171.136 239.136C173.346 240.144 175.092 241.953 176.022 244.198C176.951 246.443 176.995 248.956 176.144 251.232C174.533 256.742 174.433 262.584 175.856 268.145C177.278 273.707 180.171 278.783 184.23 282.842C188.289 286.901 193.366 289.794 198.927 291.217C204.488 292.639 210.33 292.54 215.84 290.928C218.116 290.077 220.629 290.121 222.874 291.05C225.119 291.98 226.928 293.726 227.936 295.936C230.693 300.969 234.753 305.168 239.691 308.092C244.628 311.017 250.261 312.56 256 312.56C261.739 312.56 267.372 311.017 272.309 308.092C277.247 305.168 281.307 300.969 284.064 295.936C285.072 293.726 286.881 291.98 289.126 291.05C291.371 290.121 293.884 290.077 296.16 290.928C301.673 292.543 307.519 292.643 313.084 291.219C318.65 289.795 323.729 286.9 327.789 282.836C331.85 278.772 334.741 273.691 336.161 268.124C337.58 262.558 337.475 256.712 335.856 251.2C335.005 248.924 335.049 246.411 335.978 244.166C336.908 241.921 338.654 240.112 340.864 239.104C345.901 236.348 350.103 232.288 353.031 227.349C355.958 222.409 357.503 216.774 357.503 211.032C357.503 205.291 355.958 199.655 353.031 194.716C350.103 189.777 345.901 185.716 340.864 182.96H340.8ZM256 276.176C243.117 276.176 230.524 272.356 219.812 265.199C209.101 258.042 200.752 247.869 195.822 235.967C190.892 224.065 189.602 210.968 192.116 198.333C194.629 185.698 200.832 174.091 209.942 164.982C219.051 155.873 230.657 149.669 243.293 147.156C255.928 144.642 269.024 145.932 280.926 150.862C292.829 155.792 303.001 164.141 310.159 174.853C317.316 185.564 321.136 198.157 321.136 211.04C321.127 228.313 314.262 244.875 302.049 257.089C289.835 269.302 273.273 276.168 256 276.176Z" fill="#F8F3EF"/>
<path d="M444.16 41.6001H67.8401C60.8821 41.6043 54.2103 44.3703 49.2903 49.2903C44.3703 54.2103 41.6043 60.8821 41.6001 67.8401V444.16C41.6043 451.118 44.3703 457.79 49.2903 462.71C54.2103 467.63 60.8821 470.396 67.8401 470.4H444.16C451.118 470.396 457.79 467.63 462.71 462.71C467.63 457.79 470.396 451.118 470.4 444.16V67.8401C470.396 60.8821 467.63 54.2103 462.71 49.2903C457.79 44.3703 451.118 41.6043 444.16 41.6001ZM341.328 296.368C339.312 298.372 337.139 300.212 334.832 301.872L374.576 370.672C375.528 372.317 375.97 374.207 375.847 376.103C375.724 377.999 375.041 379.816 373.885 381.324C372.728 382.831 371.15 383.962 369.351 384.572C367.551 385.183 365.611 385.245 363.776 384.752L325.84 374.576L315.664 412.528C315.176 414.366 314.152 416.018 312.724 417.273C311.295 418.529 309.526 419.331 307.641 419.58C305.755 419.829 303.839 419.512 302.134 418.669C300.429 417.827 299.012 416.497 298.064 414.848L256 342L213.92 414.896C212.972 416.545 211.556 417.875 209.851 418.717C208.146 419.56 206.229 419.877 204.343 419.628C202.458 419.379 200.689 418.577 199.26 417.321C197.832 416.066 196.809 414.414 196.32 412.576L186.144 374.624L148.208 384.8C146.373 385.293 144.433 385.231 142.633 384.62C140.834 384.01 139.256 382.879 138.1 381.372C136.943 379.864 136.26 378.047 136.137 376.151C136.014 374.255 136.456 372.365 137.408 370.72L177.152 301.92C174.845 300.259 172.673 298.419 170.656 296.416C164.952 290.747 160.659 283.818 158.122 276.187C155.585 268.556 154.875 260.436 156.048 252.48C149.614 247.666 144.391 241.419 140.794 234.234C137.196 227.048 135.323 219.124 135.323 211.088C135.323 203.053 137.196 195.128 140.794 187.943C144.391 180.758 149.614 174.51 156.048 169.696C154.901 161.739 155.625 153.625 158.163 145.997C160.7 138.369 164.981 131.438 170.665 125.753C176.35 120.069 183.281 115.788 190.909 113.251C198.537 110.713 206.651 109.989 214.608 111.136C219.42 104.699 225.667 99.4736 232.852 95.8739C240.038 92.2743 247.964 90.4 256 90.4C264.037 90.4 271.963 92.2743 279.148 95.8739C286.333 99.4736 292.58 104.699 297.392 111.136C305.34 109.989 313.445 110.709 321.066 113.24C328.687 115.771 335.613 120.043 341.295 125.718C346.977 131.392 351.258 138.312 353.8 145.929C356.341 153.546 357.073 161.651 355.936 169.6C362.37 174.416 367.593 180.665 371.191 187.851C374.788 195.037 376.661 202.963 376.661 211C376.661 219.037 374.788 226.963 371.191 234.149C367.593 241.335 362.37 247.584 355.936 252.4C357.11 260.361 356.4 268.486 353.862 276.122C351.325 283.758 347.032 290.693 341.328 296.368Z" fill="#F8F3EF"/>
<path d="M444.16 22.3999H67.8399C55.7911 22.4084 44.2381 27.1985 35.7183 35.7183C27.1985 44.2381 22.4084 55.7911 22.3999 67.8399V444.16C22.4084 456.209 27.1985 467.762 35.7183 476.281C44.2381 484.801 55.7911 489.591 67.8399 489.6H444.16C456.209 489.591 467.762 484.801 476.281 476.281C484.801 467.762 489.591 456.209 489.6 444.16V67.8399C489.591 55.7911 484.801 44.2381 476.281 35.7183C467.762 27.1985 456.209 22.4084 444.16 22.3999ZM470.4 444.16C470.396 451.118 467.63 457.79 462.71 462.71C457.79 467.63 451.118 470.396 444.16 470.4H67.8399C60.8819 470.396 54.2101 467.63 49.2901 462.71C44.3701 457.79 41.6041 451.118 41.5999 444.16V67.8399C41.6041 60.8819 44.3701 54.2101 49.2901 49.2901C54.2101 44.3701 60.8819 41.6041 67.8399 41.5999H444.16C451.118 41.6041 457.79 44.3701 462.71 49.2901C467.63 54.2101 470.396 60.8819 470.4 67.8399V444.16Z" fill="#FF7B15"/>
<path d="M376.672 211.04C376.691 202.991 374.818 195.05 371.205 187.857C367.592 180.665 362.34 174.422 355.872 169.632C357.022 161.676 356.301 153.563 353.766 145.935C351.23 138.307 346.951 131.376 341.267 125.692C335.583 120.009 328.652 115.729 321.024 113.194C313.397 110.659 305.283 109.937 297.328 111.088C292.516 104.651 286.269 99.4251 279.083 95.8255C271.898 92.2258 263.972 90.3516 255.936 90.3516C247.899 90.3516 239.973 92.2258 232.788 95.8255C225.603 99.4251 219.356 104.651 214.544 111.088C206.587 109.941 198.473 110.665 190.845 113.202C183.217 115.74 176.285 120.021 170.601 125.705C164.917 131.389 160.636 138.321 158.098 145.949C155.561 153.576 154.837 161.691 155.984 169.648C149.55 174.462 144.327 180.709 140.729 187.894C137.131 195.079 135.258 203.004 135.258 211.04C135.258 219.075 137.131 227 140.729 234.185C144.327 241.37 149.55 247.618 155.984 252.432C154.81 260.387 155.52 268.507 158.058 276.139C160.595 283.77 164.888 290.699 170.592 296.368C172.609 298.371 174.781 300.211 177.088 301.872L137.344 370.672C136.392 372.316 135.949 374.206 136.073 376.102C136.196 377.999 136.879 379.816 138.035 381.323C139.192 382.831 140.77 383.962 142.569 384.572C144.369 385.182 146.309 385.245 148.144 384.752L186.08 374.576L196.256 412.528C196.744 414.366 197.768 416.017 199.196 417.273C200.624 418.528 202.394 419.331 204.279 419.58C206.164 419.828 208.081 419.511 209.786 418.669C211.491 417.826 212.908 416.496 213.856 414.848L256 342L298.08 414.896C299.028 416.544 300.444 417.874 302.149 418.717C303.854 419.559 305.771 419.876 307.656 419.628C309.542 419.379 311.311 418.576 312.739 417.321C314.168 416.065 315.191 414.414 315.68 412.576L325.856 374.624L363.792 384.8C365.627 385.293 367.567 385.23 369.366 384.62C371.166 384.01 372.744 382.879 373.9 381.371C375.057 379.864 375.74 378.047 375.863 376.15C375.986 374.254 375.544 372.364 374.592 370.72L334.848 301.92C337.155 300.26 339.327 298.419 341.344 296.416C347.046 290.745 351.339 283.817 353.879 276.186C356.419 268.556 357.134 260.436 355.968 252.48C362.423 247.676 367.659 241.423 371.255 234.226C374.852 227.028 376.707 219.086 376.672 211.04ZM208.88 385.216L202.224 360.384C201.897 359.159 201.332 358.011 200.56 357.006C199.788 356.001 198.824 355.159 197.725 354.529C196.626 353.898 195.412 353.491 194.155 353.332C192.898 353.172 191.622 353.263 190.4 353.6L165.568 360.256L194.576 310C201.094 311.696 207.891 312.028 214.544 310.976C221.092 319.875 230.377 326.383 240.976 329.504L208.88 385.216ZM346.368 360.256L321.6 353.6C320.382 353.273 319.112 353.189 317.862 353.353C316.612 353.517 315.407 353.926 314.315 354.556C313.223 355.186 312.265 356.025 311.498 357.025C310.73 358.025 310.166 359.166 309.84 360.384L303.184 385.216L271.024 329.504C281.625 326.378 290.913 319.872 297.472 310.976C304.119 312.028 310.911 311.695 317.424 310L346.368 360.256ZM340.8 239.104C338.589 240.112 336.843 241.921 335.914 244.166C334.985 246.41 334.941 248.924 335.792 251.2C337.403 256.709 337.503 262.551 336.08 268.113C334.657 273.674 331.765 278.751 327.706 282.81C323.647 286.869 318.57 289.761 313.009 291.184C307.447 292.607 301.605 292.507 296.096 290.896C293.82 290.045 291.306 290.089 289.062 291.018C286.817 291.947 285.008 293.693 284 295.904C281.242 300.936 277.182 305.135 272.245 308.06C267.307 310.985 261.674 312.528 255.936 312.528C250.197 312.528 244.564 310.985 239.627 308.06C234.689 305.135 230.629 300.936 227.872 295.904C226.863 293.693 225.055 291.947 222.81 291.018C220.565 290.089 218.051 290.045 215.776 290.896C210.27 292.492 204.436 292.581 198.885 291.151C193.333 289.722 188.268 286.828 184.217 282.771C180.167 278.714 177.281 273.644 175.861 268.09C174.44 262.536 174.538 256.703 176.144 251.2C176.994 248.924 176.951 246.41 176.021 244.166C175.092 241.921 173.346 240.112 171.136 239.104C166.099 236.348 161.897 232.287 158.969 227.348C156.042 222.409 154.497 216.773 154.497 211.032C154.497 205.29 156.042 199.654 158.969 194.715C161.897 189.776 166.099 185.716 171.136 182.96C173.346 181.951 175.092 180.143 176.021 177.898C176.951 175.653 176.994 173.139 176.144 170.864C174.54 165.356 174.446 159.518 175.872 153.962C177.298 148.405 180.191 143.334 184.249 139.28C188.307 135.225 193.38 132.335 198.938 130.914C204.496 129.493 210.333 129.591 215.84 131.2C218.115 132.05 220.629 132.007 222.874 131.077C225.119 130.148 226.927 128.402 227.936 126.192C230.693 121.159 234.753 116.96 239.691 114.035C244.628 111.111 250.261 109.567 256 109.567C261.738 109.567 267.371 111.111 272.309 114.035C277.246 116.96 281.306 121.159 284.064 126.192C285.072 128.402 286.881 130.148 289.126 131.077C291.37 132.007 293.884 132.05 296.16 131.2C301.669 129.588 307.511 129.489 313.073 130.911C318.634 132.334 323.711 135.226 327.77 139.286C331.829 143.345 334.721 148.421 336.144 153.983C337.567 159.544 337.467 165.386 335.856 170.896C335.005 173.171 335.049 175.685 335.978 177.93C336.907 180.174 338.653 181.983 340.864 182.992C345.9 185.748 350.103 189.808 353.03 194.747C355.958 199.686 357.503 205.322 357.503 211.064C357.503 216.805 355.958 222.441 353.03 227.38C350.103 232.319 345.9 236.38 340.864 239.136L340.8 239.104Z" fill="#FF7B15"/>
<path d="M256 145.904C243.117 145.904 230.524 149.724 219.812 156.881C209.101 164.038 200.752 174.211 195.822 186.113C190.892 198.015 189.602 211.112 192.115 223.747C194.629 236.382 200.832 247.988 209.942 257.098C219.051 266.207 230.657 272.411 243.292 274.924C255.928 277.438 269.024 276.148 280.926 271.218C292.828 266.288 303.001 257.939 310.158 247.227C317.316 236.516 321.136 223.922 321.136 211.04C321.127 193.767 314.262 177.205 302.049 164.991C289.835 152.778 273.272 145.912 256 145.904ZM256 256.976C246.915 256.976 238.033 254.282 230.479 249.234C222.925 244.187 217.037 237.012 213.56 228.619C210.084 220.225 209.174 210.989 210.946 202.078C212.719 193.167 217.094 184.982 223.518 178.558C229.942 172.134 238.127 167.759 247.038 165.986C255.949 164.214 265.185 165.124 273.579 168.6C281.972 172.077 289.147 177.965 294.194 185.519C299.242 193.073 301.936 201.955 301.936 211.04C301.932 223.221 297.091 234.903 288.477 243.517C279.863 252.131 268.181 256.972 256 256.976Z" fill="#FF7B15"/>
</svg>
